<svg width="256" height="256" viewBox="0 0 256 256" fill="none" xmlns="http://www.w3.org/2000/svg">
<path d="M255.466 54.6796L55.3194 1.05047L1.69028 201.197L201.837 254.826L255.466 54.6796Z" fill="#E2241A"/>
<path d="M130.84 206.693L133.814 195.444L141.922 197.587L141.271 200.048L136.218 198.712L135.707 200.646L140.343 201.871L139.692 204.332L135.056 203.106L134.545 205.04L139.576 206.37L138.926 208.831L130.84 206.693ZM140.506 209.249L140.954 207.557L148.147 201.866L142.852 200.466L143.503 198.005L152.687 200.434L152.24 202.126L145.046 207.817L150.341 209.217L149.691 211.678L140.506 209.249ZM160.835 202.588L163.889 203.396L161.983 210.603C161.757 211.459 161.355 212.147 160.78 212.665C160.209 213.18 159.514 213.511 158.695 213.659C157.877 213.803 156.987 213.748 156.024 213.493C155.053 213.237 154.248 212.844 153.608 212.314C152.97 211.781 152.529 211.149 152.288 210.419C152.05 209.686 152.045 208.892 152.272 208.035L154.177 200.828L157.231 201.635L155.395 208.579C155.303 208.926 155.298 209.258 155.379 209.573C155.461 209.885 155.618 210.154 155.848 210.379C156.082 210.605 156.373 210.765 156.721 210.857C157.072 210.95 157.404 210.955 157.716 210.873C158.027 210.791 158.296 210.634 158.521 210.404C158.748 210.17 158.907 209.879 158.999 209.531L160.835 202.588ZM168.394 204.587L165.42 215.837L162.366 215.029L165.34 203.779L168.394 204.587Z" fill="white"/>
<path d="M78.0803 80.7704C60.0218 93.053 54.7308 117.505 66.118 135.084L86.3619 166.072C91.768 174.523 100.625 180.383 110.632 182.073C119.028 183.538 127.655 182.298 135.131 178.355C139.272 181.059 143.873 182.862 148.704 183.651C158.941 185.454 169.523 183.087 177.92 177.228C195.978 164.832 201.269 140.493 189.882 122.914L169.753 91.9261C164.347 83.4749 155.49 77.6153 145.483 75.9251C137.087 74.4602 128.46 75.6997 120.984 79.6436C116.843 76.9392 112.242 75.1363 107.411 74.3475C97.059 72.4319 86.477 74.7982 78.0803 80.7704Z" fill="white"/>
<path d="M179.645 138.126C182.291 148.155 178.265 158.635 169.638 164.494C164.577 168.1 158.251 169.453 152.04 168.438C151.004 168.213 150.084 167.988 149.049 167.762L147.209 167.199L148.359 165.621C151.119 161.903 153.19 157.846 154.57 153.451L154.915 152.325L156.065 152.437C157.676 152.55 159.401 152.099 160.781 151.198C163.427 149.395 164.692 146.24 163.887 143.197C163.657 142.521 163.427 141.845 163.082 141.282L142.953 110.406C141.918 108.829 140.422 107.815 138.582 107.476C136.742 107.138 134.786 107.589 133.291 108.603C130.646 110.406 129.495 113.561 130.3 116.604C130.53 117.28 130.761 117.956 131.106 118.519L138.812 130.351C140.077 132.267 140.998 134.408 141.573 136.662C144.218 146.69 140.192 157.17 131.566 163.03C126.505 166.523 120.178 167.988 113.967 166.861C107.986 165.847 102.58 162.241 99.3594 157.17L79.2305 126.182C77.9653 124.266 77.0451 122.125 76.355 119.872C73.7095 109.843 77.7353 99.3633 86.3619 93.5037C91.4229 89.8978 97.7491 88.5456 103.96 89.5598C104.996 89.7852 105.916 90.0105 106.951 90.3486L108.791 90.912L107.641 92.4896C104.881 96.2081 102.81 100.265 101.43 104.659L101.085 105.786L99.9346 105.674C98.3242 105.561 96.5989 106.012 95.2186 106.913C92.5731 108.716 91.4229 111.871 92.2281 114.914C92.4581 115.59 92.6882 116.266 93.0332 116.829L113.162 147.705C114.197 149.282 115.693 150.296 117.533 150.634C119.373 150.972 121.329 150.522 122.824 149.508C125.47 147.705 126.62 144.549 125.815 141.507C125.585 140.831 125.354 140.155 125.009 139.591L117.303 127.76C116.038 125.844 115.118 123.703 114.427 121.449C111.782 111.42 115.808 100.941 124.434 95.0813C129.495 91.4754 135.822 90.1232 142.033 91.1374C148.014 92.1515 153.42 95.7574 156.641 100.828L176.769 131.816C178.035 133.732 178.955 135.873 179.645 138.126Z" fill="#E2241A"/>
</svg>
